<?xml version="1.0" standalone="no"?>
<!DOCTYPE svg PUBLIC "-//W3C//DTD SVG 20010904//EN"
 "http://www.w3.org/TR/2001/REC-SVG-20010904/DTD/svg10.dtd">
<svg version="1.0" xmlns="http://www.w3.org/2000/svg"
 width="512.000000pt" height="512.000000pt" viewBox="0 0 512.000000 512.000000"
 preserveAspectRatio="xMidYMid meet">
<metadata>
Created by potrace 1.14, written by Peter Selinger 2001-2017
</metadata>
<g transform="translate(0.000000,512.000000) scale(0.100000,-0.100000)"
fill="#000000" stroke="none">
<path d="M2321 5110 c-766 -75 -1462 -491 -1893 -1135 -156 -233 -302 -572
-362 -840 -49 -218 -60 -325 -60 -575 0 -250 11 -357 60 -575 81 -362 282
-768 522 -1055 240 -287 515 -503 847 -666 255 -125 484 -196 775 -241 161
-24 539 -24 700 0 291 45 520 116 775 241 518 254 917 653 1171 1171 125 255
196 484 241 775 24 161 24 539 0 700 -45 291 -116 520 -241 775 -254 518 -653
917 -1171 1171 -253 123 -486 196 -765 239 -126 19 -468 27 -599 15z m541
-1076 c159 -54 288 -101 288 -104 0 -3 -133 -51 -295 -107 l-296 -102 -294
102 c-162 56 -295 104 -295 107 0 7 583 209 595 206 6 -1 139 -47 297 -102z
m-785 -276 c161 -57 287 -105 280 -107 -6 -2 -140 -49 -296 -103 l-285 -99
-293 102 c-162 56 -292 103 -290 105 7 7 562 202 577 203 8 1 146 -45 307
-101z m1571 1 c161 -56 291 -103 290 -104 -12 -11 -590 -206 -600 -203 -40 9
-587 203 -580 206 4 1 133 47 287 101 154 55 287 100 295 100 8 1 147 -44 308
-100z m-795 -274 c158 -55 287 -102 287 -105 0 -7 -560 -200 -580 -200 -19 0
-580 193 -580 200 0 6 571 209 581 206 3 0 135 -46 292 -101z m1217 -397 l0
-483 -323 -113 c-177 -61 -325 -112 -329 -112 -5 0 -8 216 -8 479 l0 479 103
36 c183 65 552 195 555 195 1 1 2 -216 2 -481z m-1895 89 l320 -112 3 -483 c1
-265 1 -482 0 -482 -2 0 -149 52 -328 114 l-325 114 -3 481 c-1 264 1 481 5
480 5 0 152 -50 328 -112z m1105 -366 l0 -479 -42 -15 c-42 -14 -460 -161
-566 -198 l-52 -18 2 481 3 480 320 113 c176 62 323 113 328 114 4 1 7 -215 7
-478z m-1900 -455 l325 -113 3 -481 2 -481 -67 24 c-67 23 -467 163 -550 192
l-43 15 0 479 c0 263 1 479 3 479 1 0 148 -51 327 -114z m898 -311 l222 -78 0
-478 c0 -264 -3 -479 -7 -479 -5 0 -153 50 -330 111 l-323 112 0 483 0 483
108 -38 c59 -21 207 -73 330 -116z m1002 -328 l0 -483 -322 -112 c-178 -62
-326 -112 -330 -112 -5 0 -8 215 -8 479 l0 478 328 116 c180 63 328 116 330
116 1 1 2 -216 2 -482z"/>
</g>
</svg>
